<?xml version="1.0" standalone="no"?>
<!DOCTYPE svg PUBLIC "-//W3C//DTD SVG 20010904//EN"
 "http://www.w3.org/TR/2001/REC-SVG-20010904/DTD/svg10.dtd">
<svg version="1.0" xmlns="http://www.w3.org/2000/svg"
 width="132.000000pt" height="36.000000pt" viewBox="0 0 132.000000 36.000000"
 preserveAspectRatio="xMidYMid meet">

<g transform="translate(0.000000,36.000000) scale(0.100000,-0.100000)"
fill="#000000" stroke="none">
<path d="M10 180 l0 -170 25 0 25 0 0 170 0 170 -25 0 -25 0 0 -170z"/>
<path d="M180 332 c-66 -33 -100 -146 -66 -225 24 -57 69 -90 129 -95 30 -2
63 0 73 6 13 7 25 7 37 1 10 -6 33 -9 52 -7 l36 3 -71 54 c-65 49 -73 53 -87
38 -13 -13 -14 -19 -4 -30 9 -12 9 -16 -2 -20 -26 -10 -68 6 -92 35 -20 24
-25 40 -25 89 0 50 4 63 28 90 24 26 36 32 72 32 37 0 48 -6 73 -33 25 -28 28
-38 26 -91 -2 -50 1 -64 18 -81 l21 -21 12 44 c14 52 7 121 -18 162 -36 62
-139 86 -212 49z"/>
<path d="M480 180 l0 -172 93 4 c54 2 101 10 114 18 47 30 57 104 19 141 -23
22 -23 25 -9 41 24 27 19 77 -11 107 -22 22 -35 25 -116 29 l-90 4 0 -172z
m160 102 c17 -13 21 -24 16 -40 -8 -25 -37 -35 -87 -30 -29 3 -34 7 -37 31 -2
16 -1 35 2 43 8 21 79 18 106 -4z m18 -134 c17 -17 15 -48 -5 -70 -12 -13 -30
-18 -70 -18 l-53 0 0 50 0 50 58 0 c32 0 63 -5 70 -12z"/>
<path d="M909 253 c21 -54 50 -131 65 -170 26 -68 30 -73 58 -73 25 0 29 3 23
18 -3 9 -34 86 -68 170 -58 144 -63 152 -88 152 l-27 0 37 -97z"/>
<path d="M1100 180 l0 -170 109 0 109 0 -2 25 c-1 24 -3 25 -78 25 l-78 0 0
145 0 145 -30 0 -30 0 0 -170z"/>
</g>
</svg>
